<svg width="205" height="98" viewBox="0 0 205 98" fill="none" xmlns="http://www.w3.org/2000/svg">
    <path d="M49.3347 46.8295C46.8127 46.8295 44.7665 48.8758 44.7665 51.3978C44.9807 65.1505 43.2201 78.4034 39.4847 91.6563C38.9851 93.5123 39.913 97.462 43.8863 97.462C45.8849 97.462 47.7169 96.1533 48.2877 94.1309C50.8573 85.0181 54.1882 70.2661 53.9026 51.3978C53.9026 48.8758 51.8565 46.8295 49.3347 46.8295ZM49.1681 31.2687C37.51 31.2449 29.3731 40.215 29.5396 50.5174C29.6824 59.6303 28.826 68.767 26.994 77.642C26.4705 80.1166 28.0646 82.5196 30.539 83.0431C33.0132 83.5428 35.4163 81.9724 35.9398 79.4979C37.9145 69.9567 38.8185 60.1538 38.6757 50.3747C38.6044 45.4258 42.4587 40.3816 49.0254 40.4054C54.9972 40.5005 59.9221 45.2355 59.9934 50.9695C60.16 60.1062 59.47 69.2905 57.9711 78.2844C57.5666 80.759 59.2558 83.1145 61.754 83.5428C65.537 84.1615 66.8455 80.6639 66.9882 79.7597C68.5585 70.2423 69.2961 60.5107 69.1295 50.8268C68.963 40.1912 60.0172 31.4352 49.1681 31.2687ZM28.1122 27.5092C26.1374 25.9151 23.2825 26.2007 21.6646 28.1516C16.811 34.1476 14.1702 41.7377 14.2889 49.4707C14.4079 56.6324 13.837 63.818 12.5759 70.8133C12.124 73.2878 13.7657 75.6672 16.2399 76.1193C20.0704 76.7856 21.4029 73.2878 21.5695 72.4314C22.9256 64.8411 23.568 57.0845 23.4252 49.3279C23.3539 43.6412 25.1858 38.3115 28.7546 33.9335C30.3486 31.9587 30.0631 29.1034 28.1122 27.5092ZM48.9302 15.6363C46.0037 15.5649 43.0535 15.898 40.2224 16.5881C37.7717 17.1591 36.2491 19.6336 36.82 22.0844C37.4148 24.535 39.8655 26.0341 42.3397 25.463C44.4334 24.9871 46.5985 24.7492 48.8112 24.773C63.1577 24.9871 75.0062 36.4793 75.2441 50.3985C75.3393 57.608 74.9824 64.8649 74.1734 72.0269C73.8879 74.5251 75.6962 76.7856 78.1943 77.0711C81.3823 77.4516 83.0479 74.8106 83.2381 73.0498C84.1185 65.4836 84.4992 57.8697 84.3802 50.2557C84.0709 31.459 68.178 15.9218 48.9302 15.6363ZM96.9186 38.7636C96.3713 36.2891 93.9684 34.7187 91.4702 35.266C88.9958 35.8132 87.4493 38.2639 87.9966 40.7147C88.9006 44.8072 88.9244 47.8526 88.9006 52.4448C88.8768 54.9668 90.8991 57.0369 93.4212 57.0607H93.4688C95.967 57.0607 98.0131 55.0382 98.0369 52.5162C98.0607 48.3047 98.1081 44.1171 96.9186 38.7636ZM89.2813 21.4895C80.0024 8.2842 64.8469 0.242054 48.6922 0.00410913C35.4163 -0.162452 23.1397 4.73901 14.0036 13.8995C5.17663 22.7269 0.418323 34.4569 0.608678 46.9485L0.584884 51.0409C0.5135 53.5631 2.48825 55.6568 5.01007 55.7282C5.05766 55.752 5.10525 55.752 5.15284 55.752C7.62727 55.752 9.6496 53.7773 9.72099 51.3027L9.74478 46.8057C9.60201 36.8124 13.3849 27.4142 20.4511 20.3474C27.8504 12.9715 37.8431 8.99803 48.5733 9.1408C61.7778 9.33115 74.221 15.9218 81.8106 26.7241C83.2619 28.7941 86.0932 29.2937 88.1632 27.8423C90.2331 26.391 90.7326 23.5595 89.2813 21.4895Z" fill="url(#paint0_linear)"/>
    <path d="M127.79 22.1505H135.493V75.3115H127.79V22.1505ZM145.247 22.1505H163.907C169.213 22.1505 171.867 24.6415 171.867 29.6236V67.8384C171.867 72.8205 169.213 75.3115 163.907 75.3115H145.247V22.1505ZM164.078 66.8194V30.6426C164.078 29.6236 163.907 28.9725 163.564 28.6894C163.222 28.3498 162.537 28.1799 161.51 28.1799H153.036V69.2821H161.51C162.537 69.2821 163.222 69.1405 163.564 68.8575C163.907 68.5178 164.078 67.8384 164.078 66.8194ZM187.625 44.7397H197.04C202.347 44.7397 205 47.259 205 52.2977V67.8384C205 72.8205 202.347 75.3115 197.04 75.3115H187.967C182.603 75.3115 179.922 72.8205 179.922 67.8384V29.6236C179.922 24.6415 182.603 22.1505 187.967 22.1505H196.783C202.09 22.1505 204.743 24.6415 204.743 29.6236V38.7951H197.126V30.8125C197.126 29.7934 196.954 29.1424 196.612 28.8593C196.27 28.5196 195.585 28.3498 194.558 28.3498H190.193C189.165 28.3498 188.481 28.5196 188.138 28.8593C187.796 29.1424 187.625 29.7934 187.625 30.8125V44.7397ZM197.297 66.6495V53.3168C197.297 52.3543 197.126 51.7033 196.783 51.3636C196.441 51.0239 195.756 50.854 194.729 50.854H187.625V66.6495C187.625 67.6686 187.796 68.3479 188.138 68.6876C188.481 68.9707 189.165 69.1122 190.193 69.1122H194.729C195.756 69.1122 196.441 68.9707 196.783 68.6876C197.126 68.3479 197.297 67.6686 197.297 66.6495Z" fill="url(#paint1_linear)"/>
    <defs>
        <linearGradient id="paint0_linear" x1="0.583008" y1="0" x2="96.5153" y2="97.462" gradientUnits="userSpaceOnUse">
            <stop stop-color="#21D4FD"/>
            <stop offset="0.442708" stop-color="#6385FE"/>
            <stop offset="1" stop-color="#B721FF"/>
        </linearGradient>
        <linearGradient id="paint1_linear" x1="127.79" y1="22.1505" x2="176.398" y2="93.8741" gradientUnits="userSpaceOnUse">
            <stop stop-color="#21D4FD"/>
            <stop offset="0.442708" stop-color="#6385FE"/>
            <stop offset="1" stop-color="#B721FF"/>
        </linearGradient>
    </defs>
</svg>
