<svg width="530" height="154" viewBox="0 0 530 154" fill="none" xmlns="http://www.w3.org/2000/svg">
    <path d="M77.0327 73.9954C73.0476 73.9954 69.8145 77.2288 69.8145 81.2139C70.1529 102.944 67.371 123.885 61.4688 144.826C60.6792 147.759 62.1455 154 68.4237 154C71.5816 154 74.4764 151.932 75.3784 148.737C79.4386 134.337 84.7017 111.028 84.2505 81.2139C84.2505 77.2288 81.0174 73.9954 77.0327 73.9954ZM76.7695 49.4077C58.3485 49.3701 45.4913 63.5439 45.7545 79.8228C45.9801 94.2221 44.6268 108.659 41.7321 122.682C40.905 126.592 43.4237 130.39 47.3336 131.217C51.2431 132.006 55.0402 129.525 55.8673 125.615C58.9876 110.539 60.416 95.0492 60.1905 79.5972C60.0777 71.7775 66.1679 63.8071 76.5439 63.8447C85.98 63.995 93.7618 71.4767 93.8746 80.5371C94.1378 94.974 93.0475 109.486 90.6791 123.697C90.04 127.608 92.7091 131.329 96.6565 132.006C102.634 132.984 104.702 127.457 104.927 126.029C107.408 110.99 108.574 95.6132 108.311 80.3115C108.047 63.5063 93.9122 49.6709 76.7695 49.4077ZM43.4989 43.4673C40.3786 40.9486 35.8675 41.3997 33.3112 44.4825C25.6418 53.9568 21.4691 65.9498 21.6568 78.1688C21.8448 89.4851 20.9427 100.839 18.9501 111.892C18.236 115.802 20.8299 119.562 24.7395 120.276C30.7921 121.329 32.8976 115.802 33.1608 114.449C35.3035 102.456 36.3187 90.1994 36.0931 77.9432C35.9803 68.9576 38.875 60.5361 44.514 53.6184C47.0328 50.4981 46.5816 45.9864 43.4989 43.4673ZM76.3935 24.707C71.7693 24.5942 67.1078 25.1205 62.6343 26.2109C58.762 27.1132 56.3561 31.0231 57.2581 34.8956C58.1981 38.7679 62.0703 41.1366 65.9799 40.2342C69.2882 39.4823 72.7093 39.1063 76.2055 39.1439C98.8745 39.4823 117.596 57.641 117.972 79.6348C118.123 91.0266 117.559 102.493 116.28 113.81C115.829 117.757 118.687 121.329 122.634 121.78C127.671 122.382 130.303 118.209 130.604 115.426C131.995 103.471 132.596 91.4402 132.408 79.4092C131.92 49.7085 106.807 25.1581 76.3935 24.707ZM152.22 61.2504C151.355 57.3406 147.559 54.8591 143.611 55.7239C139.701 56.5886 137.258 60.4609 138.123 64.3334C139.551 70.7999 139.589 75.6121 139.551 82.8682C139.513 86.8532 142.709 90.1242 146.694 90.1618H146.769C150.717 90.1618 153.95 86.966 153.987 82.981C154.025 76.3265 154.1 69.7096 152.22 61.2504ZM140.153 33.9557C125.491 13.0899 101.544 0.38247 76.0176 0.00649285C55.0402 -0.256691 35.6419 7.48813 21.2059 21.9626C7.25841 35.9108 -0.260219 54.4455 0.0405616 74.1834L0.00296395 80.6499C-0.109829 84.6353 3.01047 87.9436 6.99522 88.0564C7.07042 88.094 7.14561 88.094 7.22081 88.094C11.1307 88.094 14.3262 84.9737 14.439 81.0635L14.4765 73.9578C14.251 58.1674 20.2284 43.3172 31.3937 32.151C43.0853 20.4963 58.8748 14.2178 75.8296 14.4434C96.6941 14.7442 116.356 25.1581 128.348 42.2269C130.641 45.4976 135.115 46.2871 138.386 43.9937C141.656 41.7005 142.446 37.2264 140.153 33.9557Z" fill="url(#paint0_linear)"/>
    <path d="M199 37H210.484V116.872H199V37ZM225.025 37H252.841C260.752 37 264.708 40.7427 264.708 48.2281V105.644C264.708 113.13 260.752 116.872 252.841 116.872H225.025V37ZM253.097 104.113V49.7592C253.097 48.2281 252.841 47.2499 252.331 46.8246C251.821 46.3142 250.8 46.059 249.269 46.059H236.636V107.813H249.269C250.8 107.813 251.821 107.601 252.331 107.175C252.841 106.665 253.097 105.644 253.097 104.113ZM288.2 70.9394H302.236C310.147 70.9394 314.102 74.7246 314.102 82.2951V105.644C314.102 113.13 310.147 116.872 302.236 116.872H288.71C280.714 116.872 276.716 113.13 276.716 105.644V48.2281C276.716 40.7427 280.714 37 288.71 37H301.853C309.764 37 313.719 40.7427 313.719 48.2281V62.008H302.363V50.0144C302.363 48.4833 302.108 47.5051 301.598 47.0797C301.087 46.5694 300.066 46.3142 298.535 46.3142H292.028C290.497 46.3142 289.476 46.5694 288.965 47.0797C288.455 47.5051 288.2 48.4833 288.2 50.0144V70.9394ZM302.618 103.858V83.8262C302.618 82.3801 302.363 81.4019 301.853 80.8916C301.342 80.3812 300.322 80.126 298.79 80.126H288.2V103.858C288.2 105.389 288.455 106.41 288.965 106.92C289.476 107.346 290.497 107.558 292.028 107.558H298.79C300.322 107.558 301.342 107.346 301.853 106.92C302.363 106.41 302.618 105.389 302.618 103.858ZM344.773 37H372.589C380.5 37 384.456 40.7427 384.456 48.2281V105.644C384.456 113.13 380.5 116.872 372.589 116.872H344.773V37ZM372.844 104.113V49.7592C372.844 48.2281 372.589 47.2499 372.079 46.8246C371.568 46.3142 370.547 46.059 369.016 46.059H356.384V107.813H369.016C370.547 107.813 371.568 107.601 372.079 107.175C372.589 106.665 372.844 105.644 372.844 104.113ZM408.458 37H422.622C430.533 37 434.489 40.7427 434.489 48.2281V105.644C434.489 113.13 430.533 116.872 422.622 116.872H408.458C400.462 116.872 396.464 113.13 396.464 105.644V48.2281C396.464 40.7427 400.462 37 408.458 37ZM423.005 103.858V50.0144C423.005 48.4833 422.75 47.5051 422.239 47.0797C421.729 46.5694 420.708 46.3142 419.177 46.3142H411.776C410.245 46.3142 409.223 46.5694 408.713 47.0797C408.288 47.5051 408.075 48.4833 408.075 50.0144V103.858C408.075 105.389 408.288 106.41 408.713 106.92C409.223 107.346 410.245 107.558 411.776 107.558H419.177C420.708 107.558 421.729 107.346 422.239 106.92C422.75 106.41 423.005 105.389 423.005 103.858ZM483.941 62.008H472.202V49.7592C472.202 48.2281 471.947 47.2499 471.437 46.8246C471.011 46.3142 470.033 46.059 468.502 46.059H461.995C460.463 46.059 459.443 46.3142 458.932 46.8246C458.422 47.2499 458.167 48.2281 458.167 49.7592V104.241C458.167 105.772 458.422 106.793 458.932 107.303C459.443 107.728 460.463 107.941 461.995 107.941H468.502C470.033 107.941 471.011 107.728 471.437 107.303C471.947 106.793 472.202 105.772 472.202 104.241V92.1196H483.941V105.644C483.941 113.215 479.943 117 471.947 117H458.422C450.511 117 446.555 113.215 446.555 105.644V48.2281C446.555 40.7427 450.511 37 458.422 37H471.947C479.943 37 483.941 40.7427 483.941 48.2281V62.008ZM518.261 103.858V84.3365C518.261 82.8054 518.006 81.8272 517.495 81.4019C517.07 80.8915 516.092 80.6364 514.561 80.6364H505.118C497.377 80.6364 493.507 76.8511 493.507 69.2807V48.2281C493.507 40.7427 497.463 37 505.374 37H517.878C525.789 37 529.745 40.7427 529.745 48.2281V59.9665H518.133V50.0144C518.133 48.4833 517.878 47.5051 517.368 47.0797C516.857 46.5694 515.837 46.3142 514.305 46.3142H508.946C507.415 46.3142 506.394 46.5694 505.884 47.0797C505.374 47.5051 505.118 48.4833 505.118 50.0144V67.7496C505.118 69.2807 505.374 70.3014 505.884 70.8118C506.394 71.2371 507.415 71.4498 508.946 71.4498H518.261C526.087 71.4498 530 75.1925 530 82.6778V105.644C530 113.13 526.002 116.872 518.006 116.872H505.629C497.718 116.872 493.762 113.13 493.762 105.644V93.9059H505.374V103.858C505.374 105.389 505.629 106.41 506.139 106.92C506.65 107.346 507.67 107.558 509.202 107.558H514.561C516.092 107.558 517.07 107.346 517.495 106.92C518.006 106.41 518.261 105.389 518.261 103.858Z" fill="url(#paint1_linear)"/>
    <defs>
        <linearGradient id="paint0_linear" x1="0" y1="0" x2="151.583" y2="154" gradientUnits="userSpaceOnUse">
            <stop stop-color="#21D4FD"/>
            <stop offset="0.442708" stop-color="#6385FE"/>
            <stop offset="1" stop-color="#B721FF"/>
        </linearGradient>
        <linearGradient id="paint1_linear" x1="199" y1="37" x2="234.464" y2="186.072" gradientUnits="userSpaceOnUse">
            <stop stop-color="#21D4FD"/>
            <stop offset="0.442708" stop-color="#6385FE"/>
            <stop offset="1" stop-color="#B721FF"/>
        </linearGradient>
    </defs>
</svg>
